# xmcd
#
# Track frame offsets:
#	150
#	16472
#	38587
#	56089
#	74275
#	90537
#	102267
#	117912
#	132947
#	150547
#	166915
#	181657
#	201045
#	217137
#	232090
#
# Disc length: 3342
#
# Revision: 2
# Processed by: cddbd v1.5.1PL0 Copyright (c) Steve Scherf et al.
# Submitted via: audiograbber 1.80
# Normalized: r1:DSETVAR1
#
DISCID=c90d0c0f
DTITLE=Various Artist - The Names Behind The Artists Volume 2
DYEAR=1900
DGENRE=
TTITLE0=Pat Alger - She Came From Fort Worth
TTITLE1=Dave Loggins - She Is His Only Need
TTITLE2=Greg Swint - Love A Little Stronger
TTITLE3=Greg Barnhill - Walkaway joe
TTITLE4=Hugh Prestwood - The Moon Is Still Over Her Shoulder
TTITLE5=Pat Alger - Small Town Saturday Night
TTITLE6=Steven Dale Jones - I Know How The River Feels
TTITLE7=Tony Arata - Slower
TTITLE8=Hugh Prestwood - That's That
TTITLE9=Gary Burr - Till You Love Me
TTITLE10=Tim Mensy - Mama Knows
TTITLE11=Gary Burr - Silence Is King
TTITLE12=Steven Dale Jones - Ten Thousand Angels
TTITLE13=Pete Wasner - One Night A Day
TTITLE14=Dennis Morgan - I Knew You Were Waiting (For Me)
EXTD=
EXTT0=
EXTT1=
EXTT2=
EXTT3=
EXTT4=
EXTT5=
EXTT6=
EXTT7=
EXTT8=
EXTT9=
EXTT10=
EXTT11=
EXTT12=
EXTT13=
EXTT14=
PLAYORDER=
